<?xml version="1.0" encoding="utf-8"?>
<!-- Generator: Adobe Illustrator 27.5.0, SVG Export Plug-In . SVG Version: 6.00 Build 0)  -->
<svg version="1.1" xmlns="http://www.w3.org/2000/svg" xmlns:xlink="http://www.w3.org/1999/xlink" x="0px" y="0px"
	 viewBox="0 0 1122 1122" style="enable-background:new 0 0 1122 1122;" xml:space="preserve">
<g id="BG">
	<rect style="fill:#FFFDF8;" width="1122" height="1122"/>
</g>
<g id="Object">
	<g>
		<path style="fill:#EBE3CF;" d="M797.83,780.188c-2.219-5.529-9.367-7.661-14.872-7.598c-37.762,0.436-75.579,1.44-113.337,0.364
			c-13.071-0.373-26.121-1.085-39.13-2.312c-0.573-2.126-1.912-3.678-4.161-3.72c-8.788-0.164-17.57-0.223-26.349-0.197
			c-4.303-0.707-8.596-1.473-12.874-2.32c-4.747-0.94-9.477-1.962-14.169-3.151c-2.438-0.617-4.852-1.33-7.289-1.944
			c-6.964-1.757-14.046-0.806-21.141-1.724c-5.422-0.702-18.806,1.718-13.865,10.679c-3.212,0.115-6.425,0.229-9.638,0.35
			c-17.653,0.661-35.306,1.341-52.958,2.036c-15.003,0.59-30.337,0.417-45.213,2.656c-15.215,2.291-30,8.161-38.24,21.888
			c-5.022,8.367,10.122,17.42,16.562,17.629c51.434,1.671,103.049-0.66,154.501-0.92c50.701-0.257,101.563-0.043,152.237-1.756
			c28.745-0.971,56.617-4.624,82.935-16.872C795.486,791.109,799.917,785.388,797.83,780.188z M534.962,789.906
			c11.092-0.558,22.179-1.169,33.259-1.889c1.49,0.304,2.979,0.61,4.473,0.895c0.422,0.08,0.847,0.15,1.269,0.229
			C560.963,789.394,547.963,789.648,534.962,789.906z"/>
		<g>
			<g>
				<g>
					<path style="fill:#F9EFE6;" d="M716.18,746.474c-0.023-3.553,0.204-7.057-0.825-10.608c-0.722-2.491-0.541-5.292-0.494-7.949
						c0.189-10.71,0.531-21.418,0.717-32.129c0.098-5.615,0.891-11.271-1.081-16.797c-0.474-1.329-0.202-2.949-0.161-4.432
						c0.165-5.926,0.683-6.43,7.401-7.462c-0.598-7.335-2.271-14.597-1.494-22.026c0.03-0.287-0.065-0.587-0.106-0.881
						c-1.427-10.184-3.262-20.334-4.098-30.566c-0.385-4.719-1.703-9.317-1.634-14.017c0.074-5.056-0.195-10.007-1.427-14.928
						c-0.713-2.848-1.329-5.766-1.544-8.686c-0.673-9.137-2.536-18.065-4.564-26.955c-1.771-7.761-3.764-15.477-5.887-23.15
						c-0.82-2.964-1.298-5.846-0.081-8.673c1.596-3.706,1.145-7.561,1.285-11.386c-1.522,0.21-2.788,0.66-3.434,2.316
						c-3.414,8.75-9.647,15.569-15.907,22.236c-8.776,9.343-18.858,17.054-30.387,22.869c-4.476,2.258-8.591,5.252-12.794,8.027
						c-8.214,5.424-16.785,6.923-26.161,3.151c-4.684-1.884-9.303-3.833-13.802-6.141c-14.796-7.593-29.273-15.666-42.516-25.834
						c-2.831-2.173-5.71-4.217-8.108-6.877c-2.386-2.648-5.117-4.729-8.601-5.522c2.822,5.823-4.737,19.24-7.165,23.179
						c-11.105,18.01-18.392,37.449-31.061,54.553c-1.728,4.269-3.363,8.579-4.643,13.043c-4.892,17.06-8.736,34.369-12.988,51.582
						c-0.876,3.543-0.654,6.926,0.24,10.512c2.3,9.219,2.132,9.262-2.543,17.466c-0.589,1.033-1.128,2.099-1.789,3.083
						c-5.645,8.407-9.93,17.519-14.326,26.613c-2.287,4.732-2.789,10.428-7.111,14.135c0.434,5.874,2.725,11.556,1.312,16.753
						c1.331,2.196,2.567,1.404,3.661,1.439c5.629,0.178,7.066,1.321,8.713,6.857c1.576,5.295,3.798,7.006,8.988,5.457
						c6.517-1.944,13.038-4.18,19.137-7.153c8.863-4.32,16.685-10.115,22.188-18.673c2.062-3.207,5.923-5.02,7.684-8.595
						c5.137-10.429,9.499-21.093,9.637-32.987c0.021-1.785-0.087-3.593,0.154-5.351c1.109-8.082-0.507-16.045-1.823-23.853
						c-0.982-5.828-0.555-11.798-2.362-17.553c-1.073-3.413,0.825-6.375,3.965-8.212c2.691-1.574,6.218-0.747,7.827,1.865
						c1.251,2.03,1.912,4.257,2.385,6.646c1.951,9.86,4.143,19.673,6.248,29.503c0.309,1.442,0.479,2.935,0.971,4.312
						c0.742,2.075,1.755,3.312,4.592,2.886c3.487-0.523,3.65-0.073,4.943,3.492c4.556,12.558,9.882,24.795,15.153,37.062
						c1.754,4.082,4.265,7.711,5.924,11.901c3.657,9.236,5.876,18.601,5.767,28.525c-0.01,0.879,0.123,1.772,0.3,2.636
						c0.266,1.298,2.387,2.235,3.633,1.557c1.03-0.56,2.251-1.094,2.89-1.993c5.307-7.477,11.427-14.461,14.107-23.549
						c0.597-2.024,1.204-3.993,1.111-6.083c-0.401-9.029,1.898-17.609,4.199-26.204c2.447-9.141,4.726-18.326,7.238-27.448
						c0.811-2.943,0.554-5.899,0.817-8.846c0.518-5.8,4.631-9.611,10.547-9.801c0.296-0.009,0.6-0.024,0.892,0.021
						c9.838,1.495,16.067-4.067,21.66-10.981c1.489-1.841,3.104-3.626,4.893-5.168c8.195-7.065,14.641-15.515,20.027-24.832
						c0.445-0.77,0.845-1.587,1.404-2.268c1.233-1.5,2.85-2.193,4.74-1.511c1.83,0.659,2.878,2.111,2.956,4.05
						c0.047,1.161-0.035,2.419-0.437,3.491c-2.186,5.83-4.244,11.688-7.083,17.286c-4.821,9.506-9.532,19.13-12.105,29.546
						c-2.014,8.153-2.376,16.424,0.239,24.576c3.261,10.166,6.105,20.445,8.328,30.886c2.588,12.157,5.093,24.333,4.298,36.893
						c-0.075,1.176,0.013,2.38,0.175,3.55c0.17,1.238,0.83,2.431,2.127,2.511c8.483,0.521,17.095,2.404,25.456-1.84
						C714.911,765.384,716.242,755.926,716.18,746.474z"/>
					<path style="fill:#EBE1D9;" d="M459.091,734.22c0.434,5.874,2.724,11.556,1.312,16.753c1.33,2.196,2.567,1.404,3.661,1.439
						c5.629,0.178,7.065,1.321,8.713,6.857c1.576,5.295,3.799,7.006,8.988,5.457c6.517-1.944,13.038-4.18,19.137-7.153
						c8.863-4.32,16.685-10.115,22.188-18.673c2.062-3.207,5.923-5.02,7.684-8.595c5.137-10.429,9.498-21.093,9.637-32.987
						c0.021-1.785-0.088-3.593,0.154-5.351c1.11-8.082-0.507-16.045-1.823-23.853c-0.982-5.828-0.555-11.798-2.363-17.553
						c-1.072-3.413,0.825-6.375,3.966-8.212c2.691-1.574,6.218-0.747,7.827,1.865c1.251,2.03,1.913,4.257,2.385,6.646
						c1.95,9.86,4.143,19.673,6.247,29.503c0.309,1.442,0.479,2.935,0.971,4.312c0.741,2.074,1.754,3.311,4.592,2.886
						c3.487-0.523,3.65-0.073,4.943,3.492c4.556,12.558,9.883,24.796,15.153,37.062c1.754,4.082,4.265,7.711,5.924,11.901
						c3.656,9.236,5.876,18.601,5.767,28.525c-0.01,0.878,0.123,1.772,0.3,2.636c0.266,1.298,2.386,2.235,3.633,1.557
						c1.029-0.56,2.251-1.094,2.889-1.994c5.308-7.477,11.428-14.461,14.107-23.549c0.597-2.024,1.204-3.993,1.111-6.083
						c-0.401-9.029,1.898-17.609,4.199-26.204c2.447-9.14,4.726-18.326,7.239-27.448c0.81-2.943,0.553-5.899,0.816-8.846
						c0.518-5.8,4.631-9.611,10.546-9.801c0.297-0.009,0.6-0.024,0.892,0.021c9.838,1.496,16.067-4.067,21.661-10.981
						c1.489-1.84,3.104-3.626,4.893-5.168c8.195-7.065,14.641-15.515,20.027-24.832c0.445-0.77,0.845-1.587,1.404-2.268
						c1.233-1.5,2.85-2.193,4.74-1.511c1.83,0.659,2.878,2.111,2.956,4.05c0.047,1.161-0.034,2.419-0.437,3.491
						c-2.187,5.83-4.244,11.688-7.083,17.286c-4.821,9.506-9.532,19.13-12.105,29.546c-2.014,8.153-2.376,16.424,0.24,24.576
						c3.261,10.166,6.105,20.445,8.328,30.886c2.589,12.157,5.093,24.333,4.298,36.893c-0.075,1.176,0.013,2.38,0.175,3.55
						c0.17,1.238,0.83,2.432,2.127,2.511c8.483,0.521,17.095,2.404,25.456-1.84c-1.655-9.634-0.325-19.092-0.386-28.544
						c-0.023-3.553,0.204-7.057-0.825-10.608c-0.722-2.491-0.541-5.292-0.494-7.949c0.189-10.71,0.531-21.418,0.717-32.128
						c0.098-5.615,0.891-11.271-1.081-16.797c-0.474-1.329-0.203-2.948-0.161-4.431c0.165-5.926,0.683-6.43,7.401-7.462
						c3.278,0.469,4.336,3.048,4.855,5.68c1.258,6.378,2.536,12.779,3.217,19.234c0.574,5.44,2.236,10.411,4.525,15.269
						c3.171,6.728,6.128,13.567,9.552,20.164c4.635,8.93,6.94,18.25,6.096,28.32c-0.198,2.369-0.058,4.764-0.205,7.139
						c-0.263,4.233,0.268,7.897,3.147,11.592c4.087,5.246,1.928,13.803-3.711,17.082c-3.852,2.24-8.05,1.547-12.097,0.364
						c-1.406-0.411-2.692-1.254-4.009-1.945c-1.925-1.01-4.101-1.493-6.067-0.935c-9.116,2.589-18.343,0.8-27.513,0.961
						c-3.865,0.068-7.745-0.037-11.602-0.301c-8.358-0.572-16.604,0.039-24.706,2.135c-2.401,0.621-4.681,0.861-6.957-0.174
						c-2.538-1.154-5.252-1.222-7.895-1.018c-7.656,0.589-15.295,1.392-22.938,2.141c-1.47,0.144-2.947,0.695-4.387,0.59
						c-4.64-0.338-8.65,0.932-12.657,3.345c-5.193,3.127-10.915,1.725-16.43,0.567c-1.729-0.363-3.456-0.978-5.032-1.778
						c-2.73-1.386-5.041-1.045-7.398,0.863c-3.435,2.78-7.506,3.183-11.798,3.038c-5.321-0.18-10.584,0.036-15.946,0.829
						c-6.376,0.943-13.026,0.817-19.47-0.899c-2.268-0.604-4.667-0.81-7.022-0.968c-4.142-0.277-8.26-0.196-12.307-1.685
						c-2.141-0.788-4.702-0.496-7.077-0.568c-7.735-0.235-15.472-0.529-23.209-0.575c-6.099-0.036-11.08-1.863-14.146-7.482
						c-2.24-4.104-6.411-6.245-9.966-8.656c-5.361-3.636-11.158-6.85-17.522-8.682c-1.42-0.409-2.865-1.269-4.248-1.177
						c-6.641,0.442-12.839-2.114-19.361-2.645c-5.587-0.454-11.032-2.538-15.003-7.022c-2.224-2.511-5.025-4.126-7.925-5.677
						c-15.998-8.557-26.471-21.638-31.904-38.896c-1.419-4.507-3.271-8.781-5.635-12.992c-3.463-6.169-5.244-13.099-5.782-20.36
						c-0.658-8.873-1.648-17.705-1.012-26.625c0.253-3.548,0.084-7.089,1.376-10.557c0.702-1.884,0.718-4.093,0.723-6.157
						c0.028-11.723,3.077-22.921,6.649-33.867c3.491-10.698,7.255-21.343,12.352-31.492c2.188-4.357,5.423-7.678,8.206-11.442
						c0.545-0.737,2.177-0.671,3.308-0.976c0.375,1.404,1.353,2.975,1.019,4.182c-1.417,5.107-1.999,10.42-4.099,15.374
						c-1.373,3.238-2.458,6.595-3.111,10.147c-1.814,9.861-4.191,19.622-4.206,29.735c-0.001,0.883,0.004,1.859-0.346,2.632
						c-2.035,4.503-1.717,9.292-1.772,14.017c-0.076,6.49,0.126,12.919,0.823,19.441c0.718,6.711,1.084,13.607,2.254,20.203
						c2.581,14.558,6.306,28.85,14.536,41.589c5.402,8.362,11.626,15.571,20.703,20.074c10.923,5.418,22.432,9.172,34.098,12.55
						c2.268,0.657,3.564-0.434,4.095-2.214c1.26-4.219,3.228-8.27,3.332-12.792C454.269,731.955,454.269,731.955,459.091,734.22z"/>
					<path style="fill:#F9EFE6;" d="M710.906,464.949c-1.573-2.364-1.889-4.827-2.297-7.511c-1.379-9.074-3.542-18.003-6.208-26.782
						c-1.812-5.964-3.676-12.18-8.47-16.423c-3.101-2.745-4.711-5.772-5.908-9.571c-1.957-6.213-4.088-12.443-6.956-18.267
						c-1.582-3.211-3.037-6.418-4.058-9.794c-2.662-8.793-5.383-17.56-7.078-26.635c-1.093-5.85-3.189-11.38-8.017-15.553
						c-4.791-4.14-10.571-4.318-15.095,0.018c-2.649,2.539-4.554,5.462-4.934,9.209c2.953,0.073,3.707-2.605,5.274-4.246
						c5.292-5.545,7.398-5.259,11.022,1.577c0.554,1.047,1.172,2.091,1.519,3.211c4.454,14.375,11.132,28.011,14.131,42.881
						c0.538,2.669,0.871,5.233,0.513,7.892c-0.25,1.863-1.916,3.043-3.854,2.768c-0.87-0.124-1.754-0.296-2.576-0.597
						c-6.372-2.334-12.754-4.517-19.441-5.946c-3.912-0.837-7.503-3.181-11.237-4.848c-1.018,1.278-2.308,1.82-3.914,1.357
						c-9.154-2.636-18.469-3.898-28.018-3.938c-7.262-0.031-14.141,1.056-20.651,4.364c-2.396,1.217-4.814,2.394-7.253,3.566
						c0.121,6.336-11.019,8.727-12.956,1.231c-2.717-10.515-5.475-21.113-8.492-31.555c-0.7-1.07-1.426-2.12-2.255-3.098
						c-2.016-2.379-4.39-4.437-6.405-6.819c-2.021-2.389-3.955-4.994-4.91-7.705c-4.006-0.114-7.958,1.869-9.015,5.695
						c-1.273,4.608-3.91,8.476-5.222,13.057c-1.631,5.699-2.91,11.425-4.208,17.188c-1.393,6.184-1.875,12.32-0.391,18.47
						c0.718,2.972,0.59,5.898,0.523,8.854c-0.427,19.03-0.78,38.063-1.415,57.087c-0.2,5.996,0.362,11.83,1.684,17.626
						c0.986,4.325,2.106,8.619,3.167,12.927c2.479-0.162,4.724,0.292,6.464,2.282c0.978,1.119,2.192,2.051,3.068,3.238
						c7.599,10.305,18.931,13.931,30.565,16.574c4.267,0.969,8.523,2.229,13.062,2.472c8.396,0.45,16.089-1.536,22.882-6.003
						c14.07-9.249,10.811-7.393,27.443-7.221c4.729,0.049,9.525-0.292,14.057,1.739c1.023,0.459,2.37,0.489,3.517,0.335
						c12.677-1.7,25.091-4.198,36.018-11.48c3.516-2.344,6.527-5.103,9.036-8.48c1.232-1.659,2.523-3.3,3.974-4.766
						c2.659-2.689,4.612-3.02,6.932,1.007c0.429,0.744,1.157,1.317,1.746,1.968c0.411-0.418,1.071-0.773,1.196-1.264
						c0.936-3.686,1.661-7.297,3.799-10.716C712.931,471.662,712.847,467.867,710.906,464.949z M558.791,402.487
						c-6.103,4.203-12.328,8.231-18.474,12.372c-1.826,1.231-3.288,0.741-4.75-0.63c-1.864-1.746-2.643-3.843-2.554-6.389
						c0.188-5.356,0.274-10.715,0.402-16.073l-0.014,0c0.092-3.87-0.025-7.758,0.319-11.605c0.816-9.126,2.133-18.186,4.223-27.123
						c0.428-1.83,1.06-3.51,3.019-3.991c2.073-0.509,3.26,1.134,4.422,2.428c1.181,1.316,2.299,2.737,3.181,4.265
						c2.226,3.852,4.713,7.627,6.352,11.729c2.971,7.431,5.351,15.095,8.072,22.628
						C564.905,395.402,563.195,399.454,558.791,402.487z"/>
					<path style="fill:#F9EFE6;" d="M439.534,736.423c-3.272,1.44-5.925,0.014-8.283-1.751
						c-12.747-9.541-23.449-20.906-30.868-35.163c-1.943-3.733-3.341-7.665-4.211-11.712c-1.301-6.043-2.409-12.127-3.516-18.212
						c-4.55-14.141-5.457-29.184,0.338-43.419c2.977-7.312,7.806-16.697,14.504-22.785c0.912-2.428,1.892-4.833,3.061-7.177
						c0.788-1.58,1.591-3.326,1.695-5.037c0.202-3.319,2.092-5.424,4.255-7.547c1.26-1.237,2.272-2.726,3.402-4.096
						c4.12-4.992,8.674-9.511,13.746-13.5c5.912-0.181,11.654-0.428,16.687-4.602c6.807-5.645,8.464-15.229,5.123-23.194
						c-3.374-8.045-12.031-14.732-20.723-15.271c-2.84-0.176-5.509,0.333-8.036,1.295c-0.211,0.008-0.408-0.011-0.621,0.002
						c-10.957,0.653-20.151,4.243-26.623,13.598c-3.539,5.115-7.212,10.164-11.191,14.936c-2.119,2.542-4.068,5.091-5.464,8.072
						c0.375,1.404,1.353,2.975,1.018,4.182c-1.417,5.107-2,10.421-4.099,15.374c-1.373,3.238-2.458,6.595-3.111,10.147
						c-1.814,9.861-4.191,19.622-4.206,29.735c-0.001,0.883,0.004,1.859-0.345,2.632c-2.035,4.503-1.718,9.292-1.773,14.017
						c-0.075,6.49,0.126,12.919,0.823,19.441c0.717,6.711,1.084,13.607,2.253,20.203c2.58,14.559,6.306,28.85,14.536,41.589
						c5.402,8.362,11.626,15.571,20.703,20.073c10.923,5.419,22.432,9.172,34.098,12.55c2.268,0.657,3.564-0.434,4.096-2.214
						c1.26-4.219,3.227-8.27,3.332-12.792C446.591,735.89,442.941,734.924,439.534,736.423z"/>
					<path style="fill:#EBE1D9;" d="M706.269,486.308c-0.589-0.651-1.317-1.224-1.746-1.968c-2.32-4.027-4.272-3.696-6.932-1.007
						c-1.45,1.466-2.741,3.107-3.974,4.766c-2.509,3.377-5.519,6.136-9.036,8.48c-10.927,7.282-23.342,9.78-36.018,11.48
						c-1.147,0.154-2.493,0.124-3.517-0.335c-4.532-2.031-9.327-1.69-14.057-1.739c-16.632-0.172-13.374-2.028-27.443,7.221
						c-6.793,4.467-14.486,6.453-22.882,6.003c-4.539-0.243-8.795-1.503-13.062-2.472c-11.633-2.642-22.966-6.269-30.565-16.574
						c-0.876-1.187-2.09-2.119-3.068-3.238c-1.74-1.991-3.984-2.444-6.464-2.282c-0.203,7.458,3.576,13.2,8.099,18.586
						c1.381,1.645,3.063,3.083,3.56,5.2c0.58,0.433,1.003,0.989,1.313,1.628c3.484,0.793,6.215,2.874,8.601,5.522
						c2.398,2.66,5.277,4.704,8.108,6.877c13.243,10.168,27.72,18.241,42.516,25.834c4.499,2.308,9.118,4.257,13.802,6.141
						c9.376,3.772,17.948,2.273,26.161-3.151c4.202-2.775,8.317-5.769,12.794-8.027c11.529-5.816,21.611-13.526,30.387-22.869
						c6.261-6.666,12.494-13.486,15.907-22.236c0.646-1.656,1.911-2.106,3.435-2.315c-0.029-4.158,0.37-8.208,2.721-11.83
						C706.44,491.645,706.246,488.949,706.269,486.308z"/>
					<path style="fill:#EBE1D9;" d="M641.885,343.641c2.953,0.073,3.707-2.605,5.274-4.246c5.292-5.545,7.398-5.259,11.023,1.577
						c0.555,1.046,1.172,2.091,1.519,3.211c4.454,14.375,11.132,28.011,14.131,42.882c0.538,2.669,0.871,5.233,0.513,7.892
						c-0.25,1.864-1.916,3.043-3.855,2.768c-0.87-0.124-1.753-0.296-2.576-0.597c-6.372-2.334-12.754-4.517-19.441-5.946
						c-3.913-0.837-7.503-3.181-11.237-4.848c0.076-3.529,0.285-7.061,0.201-10.586c-0.186-7.697,2.034-15.063,3.15-22.566
						C641.057,350.013,641.636,346.85,641.885,343.641z"/>
					<path style="fill:#EBE1D9;" d="M533.4,391.767c0.092-3.87-0.025-7.758,0.319-11.605c0.816-9.126,2.133-18.186,4.223-27.123
						c0.428-1.83,1.06-3.509,3.02-3.991c2.072-0.51,3.26,1.134,4.422,2.427c1.182,1.316,2.299,2.737,3.181,4.264
						c2.226,3.852,4.712,7.627,6.352,11.729c2.97,7.431,5.351,15.095,8.072,22.628c1.916,5.305,0.206,9.357-4.198,12.391
						c-6.103,4.203-12.328,8.23-18.474,12.372c-1.827,1.231-3.288,0.741-4.75-0.63c-1.864-1.746-2.643-3.843-2.554-6.389
						c0.188-5.356,0.274-10.715,0.402-16.073C533.409,391.767,533.405,391.767,533.4,391.767z"/>
				</g>
			</g>
			<g>
				<g>
					<path style="fill:#261F1B;" d="M531.919,543.122c1.972,0.42,2.257,1.975,1.693,3.379c-1.326,3.302-2.796,6.57-4.504,9.689
						c-3.285,6.001-6.85,11.847-10.166,17.831c-11.893,21.465-19.497,44.639-26.984,67.862c-3.769,11.692-4.897,23.873-6.896,35.894
						c-0.128,0.77-0.032,1.927,1.026,2c0.754,0.051,1.844-0.303,2.277-0.866c1.984-2.577,3.753-5.318,5.7-7.926
						c0.251-0.336,1.24-0.501,1.616-0.282c0.693,0.404,1.668,1.158,1.663,1.758c-0.013,1.433-0.203,3.053-0.908,4.253
						c-1.499,2.554-3.331,4.919-5.097,7.31c-3.711,5.025-7.594,9.928-11.184,15.037c-15.128,21.526-18.476,45.347-13.254,70.664
						c1.73,8.385,4.114,16.635,6.293,25.322c3.936-0.256,7.467-0.396,10.98-0.732c8.909-0.85,17.786-1.207,26.737-0.207
						c5.602,0.626,11.296,0.469,16.95,0.597c2.055,0.047,3.312-0.955,3.503-3.131c0.207-2.35,0.43-4.703,0.792-7.032
						c0.063-0.402,0.811-0.783,1.315-1.013c1.052-0.478,1.656,0.323,2.131,1.024c1.447,2.133,0.775,4.611,1.057,6.94
						c0.101,0.836,0.363,1.844,0.923,2.397c1.53,1.511,8.779-0.149,9.568-2.082c0.112-0.275,0.213-0.562,0.261-0.853
						c2.208-13.327-0.734-17.468-14.085-16.185c-3.008,0.289-5.739,1.415-8.519,2.508c-2.473,0.973-5.078,1.647-7.668,2.272
						c-1.776,0.429-3.552,0.103-5.144-0.881c-0.807-0.499-1.325-1.232-1.031-2.191c0.15-0.49,0.64-1.251,0.98-1.253
						c5.846-0.032,10.809-2.923,16.136-4.698c4.529-1.509,9.372-1.574,14.148-0.847c6.636,1.01,9.988,4.275,10.943,10.982
						c0.333,2.338,0.189,4.747,0.203,7.125c0.011,1.766-0.074,3.532-0.128,5.781c5.687,0.258,11.282,0.494,16.875,0.774
						c1.778,0.089,3.623,0.141,5.02,1.459c0.38,0.359,0.634,1.058,0.607,1.584c-0.027,0.518-0.359,1.22-0.779,1.474
						c-0.734,0.443-1.629,0.801-2.473,0.842c-1.778,0.085-3.567-0.057-5.351-0.11c-9.524-0.285-19.032-0.341-28.563,0.261
						c-10.402,0.658-20.841,0.587-31.219-0.615c-5.95-0.689-11.856-0.727-17.816-0.158c-4.438,0.424-8.917,0.403-13.376,0.617
						c-3.104,0.149-6.241,0.415-5.945-4.208c-3.94-4.34-7.509-9.11-11.913-12.911c-5.444-4.698-11.819-7.353-19.393-7.958
						c-18.046-1.441-34.949-6.76-50.153-16.994c-14.609-9.833-24.615-23.125-30.569-39.58c-4.383-12.112-6.802-24.693-7.827-37.463
						c-3.616-45.07,6.154-86.926,30.987-124.953c3.569-5.465,7.776-10.523,11.821-15.665c6.816-8.664,16.13-13.933,25.949-18.295
						c6.024-2.676,12.368-3.95,19.137-2.739c7.236,1.294,12.709,4.892,16.438,11.112c5.739,9.571,5.177,19.258,0.126,28.889
						c-1.27,2.421-3.398,4.1-5.654,5.6c-3.496,2.323-7.231,4.098-11.284,5.233c-2.502,0.701-5.341,0.976-5.861,4.479
						c-0.089,0.599-1.291,1.245-2.094,1.491c-5.173,1.586-8.566,5.466-11.378,9.597c-11.965,17.583-21.729,36.161-25.461,57.464
						c-1.731,9.879-0.874,19.586,0.76,29.293c0.888,5.273,2.227,10.471,3.422,15.69c2.905,12.69,9.999,22.765,19.73,31.104
						c2.93,2.511,6.22,4.598,9.269,6.977c4.572,3.567,9.644,5.727,15.452,6.384c3.231,0.366,6.433,1.189,9.569,2.085
						c1.112,0.318,1.759,1.691,1.202,2.908c-0.323,0.705-1.313,1.688-1.872,1.611c-7.329-1.017-15.073-0.863-21.582-4.83
						c-10.448-6.368-20.332-13.53-27.387-23.876c-4.395-6.445-8.024-13.196-9.549-20.963c-1.145-5.834-2.628-11.602-3.803-17.431
						c-3.453-17.135-1.369-33.796,4.807-49.981c3.607-9.455,8.001-18.577,13.11-27.328c4.516-7.735,9.33-15.244,16.62-20.785
						c0.893-0.679,2.141-1.808,2.089-2.661c-0.331-5.51,3.308-5.147,7.041-5.413c3.557-0.254,6.935-1.616,10.157-3.204
						c9.112-4.49,13.501-13.953,10.497-23.872c-2.851-9.416-9.302-15.425-21.646-14.508c-7.574,0.563-14.409,3.565-20.375,8.322
						c-2.288,1.824-4.319,3.728-7.18,5.001c-2.778,1.236-4.894,4.242-6.96,6.75c-12.405,15.059-22.075,31.741-28.839,50.038
						c-12.664,34.261-16.352,69.334-8.963,105.308c0.956,4.654,2.162,9.279,3.603,13.806c7.431,23.351,22.988,39.13,45.434,48.448
						c9.699,4.026,19.789,6.802,30.21,7.414c7.755,0.455,14.533,2.688,20.821,6.965c0.97,0.66,1.96,1.278,3.294,0.936
						c1.213-2.329,0.033-4.606-0.441-6.839c-5.29-24.967-2.072-48.545,11.568-70.351c3.082-4.927,4.778-10.161,5.54-15.839
						c0.871-6.488,1.989-12.943,2.844-19.433c2.035-15.44,6.833-30.121,11.955-44.739c7.692-21.954,16.638-43.304,29.113-63.051
						c2.058-3.257,3.615-6.832,5.357-10.284c0.664-1.315,1.068-2.803,2.72-3.281l0.615,0.02L531.919,543.122z"/>
					<path style="fill:#261F1B;" d="M720.242,658.48c2.724,2.601,2.235,6.459,3.71,9.586c1.383,2.93,2.203,6.163,2.98,9.334
						c1.839,7.507,3.615,15.034,5.195,22.6c0.748,3.583,1.903,6.905,4.334,9.634c12.243,13.75,15.329,30.487,15.789,48.09
						c0.039,1.486,0.032,2.983-0.103,4.462c-0.214,2.341,0.517,3.834,2.858,4.822c1.875,0.791,3.578,2.142,5.138,3.496
						c4.259,3.695,5.658,9.289,3.798,14.583c-1.188,3.381-3.709,5.369-7.08,6.16c-1.712,0.402-3.544,0.369-5.323,0.393
						c-5.938,0.081-8.557,0.892-7.627-7.796c0.395-3.687-0.667-7.598-5.653-8.329c-0.711-0.104-1.663-0.998-1.852-1.702
						c-0.335-1.245,0.513-2.203,1.65-2.806c0.263-0.139,0.518-0.294,0.765-0.46c2.469-1.648,5.757-2.784,7.197-5.08
						c1.864-2.972,0.894-6.962,0.801-10.511c-0.194-7.471-1.529-14.808-3.404-22.008c-1.59-6.102-4.424-11.777-8.567-16.513
						c-5.099-5.83-7.794-12.422-8.89-20.033c-0.758-5.267-2.519-10.392-3.882-15.568c-0.209-0.795-0.239-1.862-1.641-1.859
						c-1.417,1.223-0.738,3.034-0.775,4.616c-0.396,16.96-0.74,33.921-1.051,50.882c-0.049,2.671-0.202,5.407,0.272,8.008
						c1.782,9.776,1.436,19.562,0.556,29.367c-0.452,5.042-0.048,10.008,0.689,14.951c4.723,1.288,9.216,0.369,13.625,0.795
						c1.494,0.144,1.873,1.305,1.795,2.541c-0.076,1.19-0.409,2.365-1.913,2.564c-0.588,0.078-1.18,0.159-1.772,0.179
						c-17.529,0.576-35.056,1.189-52.587,1.68c-4.158,0.117-8.335-0.066-12.492-0.309c-7.422-0.435-14.83-1.142-22.27-0.214
						c-1.264,0.158-2.351-0.661-2.401-2.012c-0.047-1.269,0.82-2.269,2.038-2.581c4.077-1.045,8.253-0.963,12.42-0.852
						c7.14,0.19,14.279,0.517,21.419,0.564c4.837,0.032,4.804-0.277,5.774-4.795c3.719-17.327,1.874-34.299-2.841-51.161
						c-4.646-16.613-8.857-33.334-11.478-50.412c-0.177-1.156-0.58-2.357-0.398-3.459c0.111-0.673,1.063-1.336,1.787-1.721
						c0.345-0.183,1.133,0.168,1.561,0.489c1.798,1.348,2.42,3.397,2.686,5.453c1.801,13.901,5.637,27.368,8.836,40.959
						c2.316,9.837,5.003,19.55,6.398,29.614c1.077,7.772,1.14,15.393-0.068,23.094c-0.46,2.936-0.854,5.89-1.091,8.851
						c-0.158,1.979,1.373,2.393,2.94,2.407c1.233,0.011,2.392-0.381,2.459-1.88c0.106-2.356,0.036-4.722,0.184-7.074
						c0.026-0.401,0.713-0.859,1.189-1.113c0.96-0.513,1.673,0.095,2.292,0.744c1.1,1.153,1.219,2.658,1.428,4.132
						c0.167,1.173,0.206,2.405,0.62,3.49c0.437,1.145,1.387,1.847,2.798,1.633c1.518-0.229,1.915-1.235,1.711-2.507
						c-0.325-2.028-0.865-4.023-1.154-6.055c-0.063-0.445,0.47-1.322,0.862-1.41c0.772-0.175,1.796-0.199,2.433,0.183
						c1.34,0.805,1.638,2.354,2.129,3.766c0.478,1.373,1.152,2.701,1.923,3.935c0.205,0.328,1.102,0.388,1.635,0.298
						c0.499-0.084,1.177-0.431,1.349-0.842c0.331-0.787,0.579-1.727,0.478-2.557c-0.763-6.254-0.116-12.48,0.175-18.721
						c0.334-7.142,0.357-14.272-1.155-21.338c-0.429-2.002-0.397-4.134-0.353-6.202c0.477-22.318,0.993-44.635,1.516-66.952
						c0.056-2.378,0.152-4.76,0.355-7.129c0.203-2.373,1.831-3.606,3.889-4.401l0.69,0.035L720.242,658.48z M744.071,774.242
						c3.333,2.569,6.184,5.408,5.283,10.158c-0.218,1.149,0.615,2.242,2.078,2.206c1.512-0.038,2.958-0.342,3.271-2.163
						c0.344-2.005,0.38-4.084,0.913-6.031c1.003-3.665,0.845-4.626-1.638-5.866C750.462,770.792,747.235,770.995,744.071,774.242z"
						/>
					<path style="fill:#261F1B;" d="M612.765,791.361c3.056-3.898,3.815-8.64,4.391-13.107c1.141-8.845,1.519-17.79,2.163-26.697
						c0.085-1.173-0.373-2.419-0.138-3.539c0.518-2.472-6.74-2.736-1.737-6.326c-0.243-2.926-0.448-5.856-0.741-8.778
						c-0.297-2.961-0.808-5.905-1.002-8.871c-0.433-6.627,0.714-13.135,2.726-19.357c3.948-12.209,7.138-24.561,8.866-37.282
						c0.079-0.582,0.237-1.168,0.451-1.716c0.472-1.207,1.449-2.033,2.675-1.759c0.714,0.159,1.614,1.092,1.766,1.817
						c0.299,1.424,0.369,2.985,0.125,4.419c-1.599,9.385-3.107,18.785-6.121,27.873c-1.588,4.79-3.061,9.65-4.11,14.58
						c-1.816,8.538-2.126,17.072,1.44,25.371c0.57,1.326,0.785,2.872,0.857,4.332c0.712,14.329-0.129,28.558-3.195,42.596
						c-0.63,2.885-1.658,5.721-2.829,8.44c-1.94,4.504-5.585,7.125-10.438,7.133c-5.939,0.01-11.926-0.258-17.806-1.047
						c-5.365-0.72-8.226-4.35-8.506-9.888c-0.164-3.26,0.105-6.546,0.247-9.818c0.427-9.913-0.868-19.423-4.427-28.857
						c-4.72-12.511-8.796-25.265-13.571-37.775c-2.641-6.919-4.674-14.146-6.195-21.4c-2.388-11.395-5.571-22.507-9.663-33.39
						c-1.359-3.615-2.552-7.308-3.537-11.04c-0.44-1.667-0.343-3.539-0.142-5.277c0.067-0.578,1.159-1.187,1.901-1.472
						c0.347-0.133,1.138,0.355,1.443,0.77c0.515,0.702,1.007,1.534,1.153,2.373c1.031,5.919,3.431,11.386,5.573,16.927
						c3.441,8.904,6.185,18.011,7.995,27.374c2.099,10.857,5.651,21.233,9.548,31.551c4.517,11.958,8.838,24.005,12.758,36.17
						c2.287,7.097,2.582,14.619,2.54,22.081c-0.018,3.275-0.212,6.549-0.235,9.823c-0.01,1.466-0.054,2.977,0.919,4.271
						c0.75,0.997,1.569,1.704,2.943,1.492c1.149-0.177,1.32-1.133,1.417-1.907c0.222-1.764,0.27-3.554,0.308-5.335
						c0.032-1.484-0.151-2.978-0.046-4.454c0.083-1.165,0.348-2.445,1.866-2.608c1.872-0.201,2.648,1.111,2.92,2.61
						c0.316,1.745,0.401,3.542,0.455,5.32c0.054,1.782-0.178,3.579-0.034,5.349c0.062,0.757,0.659,1.994,1.187,2.094
						c1.711,0.324,3.522,0.391,5.253,0.195c0.626-0.071,1.475-1.093,1.632-1.81c0.443-2.024,0.58-4.115,0.836-6.179
						c0.184-1.482,0.293-3.301,2.136-3.397c2.313-0.121,2.631,1.896,2.899,3.678C611.895,788.329,611.268,789.907,612.765,791.361z"
						/>
					<path style="fill:#261F1B;" d="M693.146,391.793c-1.872,3.464-2.194,7.035-2.175,11.041c0.029,6.098,2.134,10.813,6.137,15.04
						c0.803,0.848,1.518,1.821,2.083,2.842c0.761,1.373-0.4,3.509-2.278,4.221c-1.222,0.463-2.604,0.222-2.931-1.078
						c-1.372-5.452-6.552-8.427-8.54-13.442c-0.801-2.79-4.299-2.781-5.427-5.231c1.46-2.684-0.377-6.659,3.502-8.557
						c0.559-0.274,0.326-2.812-0.016-4.184c-2.727-10.959-6.078-21.709-10.845-31.99c-5.135-11.075-11.955-21.119-18.22-31.141
						c-2.474-0.083-2.899,1.509-3.478,2.79c-2.933,6.488-5.883,12.971-8.669,19.522c-3.408,8.014-4.627,16.543-5.575,25.12
						c-0.19,1.716-0.033,3.667-2.391,4.149l0.097,0.005c-2.416-0.325-2.547-2.249-2.488-3.973c0.223-6.536,1.004-13.013,2.772-19.33
						c3.134-11.197,8.132-21.626,13.443-31.9c2.081-4.025,5.204-4.366,8.674-1.325c0.659,0.578,1.276,1.252,1.748,1.986
						c8.978,13.961,18.478,27.648,23.851,43.572c1.989,5.896,3.71,11.881,5.613,17.806c0.635,1.978,2.017,1.698,3.455,0.89
						C692.043,389.683,692.594,390.738,693.146,391.793z"/>
					<path style="fill:#261F1B;" d="M531.919,543.122l-0.612,0.066l-0.615-0.02c1.776-1.541,0.198-3.322,0.351-4.979
						c0.169-1.833,2.439-2.533,2.298-4.61c-0.278-4.12,3.181-6.155,5.285-8.924c0.955-1.257,4.039-0.232,3.603-2.899
						c-0.302-1.848-2.302-2.567-3.707-3.588c-9.288-6.75-13.601-16.241-15.117-27.284c-0.285-2.078-0.471-4.201,0.581-6.101
						c0.373-0.674,1.306-1.399,2.008-1.425c0.674-0.025,1.639,0.681,2.003,1.331c0.399,0.713,0.249,1.729,0.35,2.612
						c0.753,6.612,0.74,6.471,7.351,5.834c17.503-1.689,34.85-4.13,51.588-9.819c1.119-0.38,2.303-0.777,3.457-0.776
						c0.734,0,1.663,0.559,2.158,1.155c0.832,1.001-0.133,1.655-0.917,1.899c-14.189,4.43-28.34,8.985-43.339,9.98
						c-5.035,0.334-10.041,1.174-15.044,1.897c-2.118,0.306-2.809,1.898-1.861,3.946c2.292,4.955,5.601,9.022,10.045,12.291
						c4.545,3.343,8.88,6.979,13.206,10.607c1.591,1.334,3.022,2.996,3.073,5.24c0.017,0.769-0.448,1.861-1.05,2.242
						c-0.576,0.365-1.902,0.331-2.403-0.102c-3.141-2.706-5.633-6.132-9.284-8.288c-1.611-0.952-3.043-0.555-3.063,1.209
						c-0.029,2.529-0.708,4.629-2.386,6.501c-0.781,0.871-2.056,2.085-1.889,2.892c1.064,5.14-3.192,6.115-6.022,8.244
						C531.816,542.365,531.929,542.825,531.919,543.122z"/>
					<path style="fill:#261F1B;" d="M564.152,390.951c-0.121,0.418-0.174,1.05-0.477,1.521c-0.289,0.451-0.786,0.862-1.284,1.065
						c-0.914,0.373-1.781-0.011-2.275-0.774c-0.465-0.72-0.886-1.593-0.95-2.427c-0.46-5.987-2.546-11.6-4.01-17.341
						c-2.242-8.796-7.401-16.158-12.554-23.433c-1.81-2.555-3.907-2.227-5.572,0.483c-3.45,5.617-5.502,11.847-7.75,17.986
						c-1.532,4.185-2.953,8.414-4.623,12.543c-0.409,1.011-1.579,1.799-2.946,1.16c-1.275-0.596-1.682-1.835-1.309-2.957
						c3.372-10.146,6.11-20.545,11.161-30.053c5.098-9.594,10.312-9.102,16.149-1.49c9.411,12.272,14.684,26.403,16.474,41.791
						C564.256,389.611,564.17,390.213,564.152,390.951z"/>
					<path style="fill:#261F1B;" d="M719.712,629.065c-0.116,1.577-0.158,2.766-0.304,3.942c-0.158,1.274-0.824,2.332-2.149,2.444
						c-1.81,0.152-2.651-1.133-2.814-2.708c-0.915-8.86-1.498-17.763-2.679-26.586c-2.323-17.366-4.952-34.692-7.484-52.03
						c-0.561-3.837-1.018-7.668-0.127-11.502c0.218-0.937,1.093-1.404,2.003-1.311c0.51,0.052,1.227,0.479,1.406,0.919
						c0.548,1.35,1.086,2.762,1.27,4.195c3.215,25.036,7.789,49.887,10.222,75.029C719.313,624.115,719.517,626.781,719.712,629.065
						z"/>
					<path style="fill:#261F1B;" d="M712.988,458.312c-0.285,4.848-1.252,9.509-2.599,14.076c-0.398,1.35-1.416,2.553-2.311,3.697
						c-0.253,0.323-1.129,0.374-1.627,0.229c-0.501-0.146-1.026-0.613-1.284-1.081c-0.262-0.475-0.361-1.148-0.268-1.689
						c0.251-1.46,0.658-2.893,0.975-4.344c2.858-13.098,1.98-12.39-9.308-10.642c-15.858,2.456-31.676,5.114-46.939,10.296
						c-1.117,0.379-2.341,0.685-3.399-0.081c-0.312-0.226-0.52-1.049-0.354-1.4c0.694-1.475,2.202-1.81,3.594-2.306
						c7.57-2.699,15.337-4.73,23.209-6.226c9.913-1.883,19.903-3.364,29.861-5.01c3.745-0.619,4.187-1.493,3.854-5.414
						c-0.368-4.337-2.762-7.766-4.475-11.521c-0.582-1.276,0.124-2.42,1.293-2.881c0.691-0.272,1.869-0.166,2.447,0.273
						c3.259,2.469,4.728,6.149,5.502,9.91C712.111,448.832,712.407,453.601,712.988,458.312z"/>
					<path style="fill:#261F1B;" d="M681.151,657.488c0.684-1.999,1.483-5.19,2.833-8.126c4.363-9.492,7.134-19.427,9.16-29.645
						c0.976-4.921,2.574-9.731,4.116-14.518c0.297-0.921,1.538-1.815,2.917-1.224c1.28,0.548,1.702,1.668,1.417,2.886
						c-2.361,10.094-4.632,20.213-7.256,30.239c-1.118,4.273-2.709,8.492-4.659,12.453c-1.316,2.674-2.755,5.198-3.233,8.187
						c-0.134,0.841-0.597,1.689-1.102,2.396c-0.702,0.982-1.656,1.766-3,1.354C680.909,661.049,680.904,659.853,681.151,657.488z"/>
					<path style="fill:#261F1B;" d="M523.143,431.971c-0.426-1.041-1.183-2.072-1.217-3.125c-0.116-3.565-2.025-5.893-4.781-7.763
						c0.043-1.156,0.086-2.313,0.129-3.469c2.199,0.018,3.3-0.947,2.901-3.247c-1.024-5.898-1.085-11.846-0.868-17.803
						c0.086-2.373,0.115-4.789,1.363-6.932c0.598-1.027,1.341-1.978,2.722-1.863c1.531,0.127,1.826,1.279,1.823,2.503
						c-0.003,1.184-0.161,2.368-0.263,3.552c-0.719,8.344-0.238,16.627,0.812,24.931c0.379,2.997,1.594,4.876,4.014,6.404
						c1.744,1.101,3.288,2.52,4.921,3.797c-0.826,0.621-1.651,1.242-2.477,1.863c-0.271-0.089-0.55-0.158-0.811-0.27
						c-3.405-1.465-3.404-1.467-6.096,1.509C524.591,432.028,523.867,431.999,523.143,431.971z"/>
					<path style="fill:#261F1B;" d="M634.422,380.902l-0.097-0.005c-0.536,1.209-0.439,2.409,0.775,2.999
						c1.564,0.76,3.348,1.073,4.9,1.851c1.127,0.565,1.554,1.9,1.137,3.048c-0.242,0.666-1.168,1.237-1.912,1.525
						c-0.796,0.307-1.74,0.23-2.617,0.321c-0.447,1.967,0.979,3.306,1.558,4.906c0.844,2.335,0.741,4.599-0.323,4.522
						c-1.857-0.135-2.194-1.721-2.885-2.97c-0.429-0.776-0.876-1.545-1.254-2.346c-1.942-4.111-5.008-6.123-9.711-6.402
						c-4.992-0.296-9.94-1.382-14.896-2.195c-0.868-0.142-1.536-0.746-1.624-1.773c-0.127-1.484,0.821-2.351,2.009-2.365
						c2.938-0.035,5.884,0.176,8.818,0.405c4.417,0.345,8.822,0.872,13.242,1.151C633.19,383.677,634.183,382.573,634.422,380.902z"
						/>
					<path style="fill:#261F1B;" d="M616.592,474.055c-2.815-0.432-6.787,0.248-6.9-3.838c-0.098-3.551,3.646-4.387,6.399-5.238
						c2.815-0.869,5.804-1.26,8.747-1.597c2.191-0.251,4.212,0.51,5.2,2.664c0.8,1.744,0.34,3.49-0.758,5.036
						c-0.879,1.239-1.981,2.203-3.47,2.652c-1.694-0.018-3.422-0.13-4.492,1.602c-0.618-0.005-1.236-0.009-1.854-0.014
						C618.746,474.361,617.785,473.946,616.592,474.055z"/>
					<path style="fill:#261F1B;" d="M621.319,475.337c1.07-1.732,2.798-1.621,4.492-1.602c0.763,2.512,1.517,5.027,2.295,7.534
						c0.359,1.156,0.952,2.141,2.13,2.659c1.376,0.605,2.964,1.368,2.296,3.128c-0.737,1.939-2.909,2.534-4.461,1.71
						c-3.3-1.752-5.323-0.567-7.29,2c-0.478,0.624-1.484,1.009-2.31,1.159c-1.177,0.215-2.491-0.026-2.978-1.258
						c-0.272-0.689-0.209-2.048,0.249-2.404c3.51-2.726,4.506-6.803,6.063-10.6C622.204,476.693,621.885,476.027,621.319,475.337z"
						/>
					<path style="fill:#261F1B;" d="M597.372,497.586c-0.287,0.485-0.456,1.205-0.88,1.419c-9.756,4.914-19.528,9.796-29.349,14.578
						c-0.557,0.271-1.554-0.361-2.346-0.572c0.264-0.807,0.294-1.88,0.843-2.363c1.089-0.959,2.412-1.702,3.731-2.344
						c7.702-3.753,15.431-7.451,23.151-11.166c1.313-0.632,2.602-1.376,4.161-0.905
						C597.431,496.457,597.665,496.894,597.372,497.586z"/>
					<path style="fill:#261F1B;" d="M664.262,385.362c-0.281,0.724-0.549,1.561-0.921,2.349c-3.654,7.74-7.548,15.371-10.271,23.525
						c-0.346,1.037-1.313,1.918-2.147,2.708c-0.253,0.24-1.231,0.135-1.52-0.16c-0.825-0.845-0.706,0.547-0.611-0.641
						c0.023-0.292-0.038-0.608,0.051-0.875c3.187-9.535,7.135-18.745,11.856-27.622c0.138-0.26,0.275-0.555,0.495-0.73
						c0.736-0.583,1.62-0.755,2.365-0.18C663.936,384.029,664.003,384.723,664.262,385.362z"/>
					<path style="fill:#261F1B;" d="M532.221,430.817c0.826-0.621,1.651-1.242,2.477-1.863c2.394,1.71,4.831,3.362,7.172,5.141
						c4.484,3.408,8.95,6.829,13.96,9.468c1.834,0.966,3.66,2.059,4.497,4.102c0.145,0.352-0.317,1.007-0.602,1.457
						c-0.124,0.195-0.503,0.269-0.78,0.314c-0.277,0.045-0.635,0.09-0.849-0.042C549.03,443.819,539.814,438.448,532.221,430.817z"
						/>
					<path style="fill:#261F1B;" d="M666.364,477.806c-4.701,0.298-9.401,0.624-14.107,0.836c-0.359,0.016-0.954-0.722-1.072-1.2
						c-0.096-0.387,0.281-1.253,0.584-1.323c9.508-2.203,19.121-3.209,28.882-2.342c0.731,0.065,0.956,0.497,1.077,1.195
						c0.192,1.108-0.484,1.818-1.255,1.874c-4.7,0.344-9.411,0.532-14.119,0.772C666.357,477.681,666.36,477.743,666.364,477.806z"
						/>
					<path style="fill:#261F1B;" d="M586.996,386.757c-0.235,0.527-0.321,1.285-0.728,1.547c-5.486,3.535-9.487,8.697-14.321,12.937
						c-0.853,0.748-1.928,1.386-3.008,1.679c-0.695,0.188-1.701-0.173-2.36-0.604c-0.833-0.544-0.825-1.723-0.24-2.298
						c4.789-4.707,8.712-10.325,14.455-14.022c1.186-0.764,2.649-1.138,4.027-1.549
						C585.667,384.195,587.237,385.959,586.996,386.757z"/>
					<path style="fill:#261F1B;" d="M541.785,417.718c0.417-0.576,0.648-1.232,1.045-1.358c0.488-0.154,1.253-0.047,1.661,0.262
						c7.31,5.515,14.155,11.574,20.782,17.884c0.209,0.199,0.465,0.476,0.478,0.727c0.026,0.527,0.08,1.206-0.205,1.554
						c-0.313,0.383-1.067,0.734-1.5,0.618c-0.818-0.219-1.648-0.661-2.29-1.22c-6.238-5.427-12.451-10.882-18.627-16.379
						C542.519,419.263,542.205,418.388,541.785,417.718z"/>
					<path style="fill:#261F1B;" d="M517.273,417.614c-0.043,1.156-0.086,2.313-0.129,3.469c-7.225-3.308-13.811-7.685-20.294-12.22
						c-0.932-0.652-1.71-1.584-2.384-2.514c-0.268-0.369-0.248-1.189-0.013-1.611c0.218-0.391,0.891-0.705,1.376-0.724
						c0.544-0.021,1.172,0.221,1.644,0.531C504.086,408.883,510.677,413.252,517.273,417.614z"/>
					<path style="fill:#261F1B;" d="M680.017,405.186c1.128,2.45,4.626,2.441,5.427,5.231c-1.713-1.383-3.319-2.233-5.327-0.245
						c-4.198,4.155-8.518,8.187-12.848,12.205c-0.592,0.55-1.506,0.855-2.32,1.008c-0.283,0.053-0.963-0.659-1.038-1.095
						c-0.291-1.69,0.995-2.752,1.993-3.724C670.547,414.043,675.302,409.635,680.017,405.186z"/>
					<path style="fill:#261F1B;" d="M693.146,391.793c-0.552-1.055-1.103-2.11-1.655-3.165c3.028-5.757,6.048-11.519,9.096-17.265
						c0.267-0.504,0.65-1.021,1.114-1.324c0.459-0.3,1.158-0.563,1.625-0.422c0.401,0.121,0.845,0.822,0.874,1.291
						c0.052,0.856,0.036,1.845-0.342,2.577C700.61,379.774,697.7,386.267,693.146,391.793z"/>
					<path style="fill:#261F1B;" d="M523.143,431.971c0.724,0.029,1.448,0.058,2.171,0.087c0.583,2.926,0.818,5.695-0.794,8.553
						c-1.584,2.806-2.742,5.882-2.725,9.264c0.007,1.465-1.247,1.962-2.46,1.926c-1.667-0.05-2.837-1.125-2.914-2.738
						c-0.068-1.425,0.161-2.996,0.729-4.296C519.034,440.45,521.129,436.228,523.143,431.971z"/>
					<path style="fill:#261F1B;" d="M570.17,477.179c1.95,0.298,5.169,0.746,8.365,1.329c0.412,0.075,0.917,0.808,0.994,1.297
						c0.149,0.946-0.402,1.779-1.395,1.712c-5.303-0.353-10.672-0.166-15.837-1.726c-0.512-0.155-0.901-0.717-1.348-1.09
						c0.576-0.567,1.116-1.573,1.733-1.621C564.732,476.918,566.81,477.099,570.17,477.179z"/>
					<path style="fill:#261F1B;" d="M696.349,507.667c-0.136-3.115-0.378-6.119-3.704-7.8c-0.719-0.363-0.779-1.659-0.126-2.333
						c0.532-0.549,1.479-1.122,2.15-1.028c1.996,0.279,3.951,0.865,5.915,1.36c3.271,0.824,4.013,2.351,1.444,4.517
						c-2.274,1.919-0.96,3.558-0.918,5.383C699.524,507.733,697.936,507.7,696.349,507.667z"/>
					<path style="fill:#261F1B;" d="M655.581,447.3c-1.938-0.139-4.121-2.299-4.044-4.003c0.139-3.038,3.12-5.634,5.93-5.167
						c2.007,0.334,3.678,2.444,3.503,4.42C660.738,445.161,658.106,447.481,655.581,447.3z"/>
					<path style="fill:#261F1B;" d="M686.64,442.138c-0.17,0.545-0.171,1.282-0.536,1.605c-4.192,3.693-9.067,6.234-14.279,8.142
						c-0.38,0.139-1.278-0.237-1.443-0.599c-0.363-0.794-0.174-1.751,0.637-2.228c4.514-2.653,9.059-5.253,13.604-7.854
						c0.238-0.136,0.656-0.246,0.84-0.13C685.903,441.354,686.253,441.774,686.64,442.138z"/>
					<path style="fill:#261F1B;" d="M673.336,664.815c-0.764,3.424-1.737,6.519-4.008,8.993c-0.846,0.921-2.113,1.313-3.23,0.656
						c-1.057-0.621-1.631-1.742-0.964-3.012c1.374-2.617,2.754-5.235,4.26-7.777c0.451-0.761,1.484-1.141,2.318-0.63
						C672.393,663.464,672.844,664.257,673.336,664.815z"/>
					<path style="fill:#261F1B;" d="M637.259,652.184c-0.149,1.912-0.169,2.204-0.195,2.495c-0.305,3.56-1.664,5.891-3.072,5.236
						c-2.342-1.089-2.119-3.294-1.981-5.294c0.12-1.735,0.521-3.462,0.927-5.162c0.302-1.266,1.258-2.057,2.553-1.79
						c1.274,0.262,1.768,1.394,1.8,2.635C637.321,651.47,637.248,652.638,637.259,652.184z"/>
					<path style="fill:#261F1B;" d="M653.324,681.229c-0.061,0.554,0.089,1.334-0.221,1.627c-2.086,1.969-4.159,3.987-6.468,5.672
						c-1.178,0.86-2.875,0.771-3.835-0.677c-0.707-1.067-0.387-2.205,0.641-3.031c2.232-1.794,4.011-4.261,7.016-4.92
						C651.669,679.634,652.672,680.126,653.324,681.229z"/>
					<path style="fill:#261F1B;" d="M698.323,521.708c0.319,0.953-0.115,1.763-0.829,2.287c-2.141,1.573-4.31,3.121-6.56,4.53
						c-1.036,0.649-2.365,0.716-3.019-0.578c-0.348-0.689-0.48-1.867-0.118-2.469c1.745-2.911,4.437-4.679,7.733-5.368
						C696.702,519.865,697.833,520.364,698.323,521.708z"/>
					<path style="fill:#261F1B;" d="M660.916,539.196c-0.957-0.083-1.598,0.008-2.099-0.216c-0.762-0.341-1.579-0.826-1.425-1.878
						c0.079-0.544,0.188-1.276,0.56-1.555c3.296-2.473,6.974-2.526,10.7-1.291c0.581,0.193,1.223,1.391,1.148,2.045
						c-0.08,0.694-0.892,1.724-1.539,1.857C665.722,538.682,663.123,538.908,660.916,539.196z"/>
					<path style="fill:#261F1B;" d="M575.039,463.192c-0.248,2.031-2.393,3.824-4.232,3.537c-2.306-0.36-4.02-2.882-3.509-5.162
						c0.383-1.708,2.149-3.207,3.694-3.136C573.263,458.536,575.313,460.947,575.039,463.192z"/>
					<path style="fill:#261F1B;" d="M700.64,509.616c0.517,1.049,1.117,2.067,1.531,3.155c0.476,1.253,0.027,2.247-1.157,2.919
						c-1.365,0.775-2.842,0.864-4.278,0.472c-1.409-0.384-2.878-0.975-3.126-2.69c-0.276-1.913,1.166-2.414,2.614-2.91
						c0.523-0.179,0.942-0.66,1.409-1.003C698.636,509.579,699.638,509.598,700.64,509.616z"/>
					<path style="fill:#261F1B;" d="M720.242,658.48l-0.69,0.031l-0.69-0.035c-0.248-0.501-0.412-1.073-0.759-1.491
						c-2.877-3.471-2.918-3.561-1.117-6.486c0.752-1.22,1.572-2.476,3.328-1.901c1.477,0.484,2.039,2.397,1.246,4.368
						C720.844,654.748,718.968,656.228,720.242,658.48z"/>
					<path style="fill:#261F1B;" d="M575.573,431.22c-0.235,0.992-0.403,1.843-0.657,2.667c-0.062,0.201-0.397,0.332-0.623,0.467
						c-0.623,0.374-1.257,0.299-1.538-0.355c-1.286-2.992-1.749-6.118-1.108-9.329c0.086-0.43,0.805-0.936,1.296-1.017
						c0.376-0.062,1.15,0.419,1.237,0.782C574.729,426.707,575.136,429.014,575.573,431.22z"/>
					<path style="fill:#261F1B;" d="M702.877,487.076c0.047-0.587-0.068-1.244,0.175-1.715c0.419-0.814,1.215-1.204,2.154-0.908
						c0.869,0.273,1.732,0.879,1.506,1.811c-0.565,2.338-2.843,4.104-1.893,7.038c0.356,1.1-1.268,1.84-2.482,1.892
						c-1.212,0.052-2.259-0.443-2.739-1.701c-0.549-1.438,0.369-2.307,1.411-2.788C702.683,489.932,704.316,489.347,702.877,487.076
						z"/>
					<path style="fill:#261F1B;" d="M525.175,468.097c-0.181,0.894-0.337,2.665-0.935,4.271c-0.371,0.997-1.357,1.909-2.687,1.722
						c-1.388-0.194-1.996-1.291-1.917-2.487c0.114-1.723,0.462-3.449,0.89-5.127c0.427-1.676,2.15-2.707,3.195-2.099
						C524.771,464.988,525.194,465.822,525.175,468.097z"/>
					<path style="fill:#261F1B;" d="M717.913,645.104c-0.423-0.522-1.179-1.091-1.418-1.827c-0.491-1.516,0.372-2.831,1.356-3.829
						c0.465-0.472,1.661-0.683,2.272-0.421c0.62,0.266,1.249,1.232,1.313,1.942C721.637,643.222,719.845,645.326,717.913,645.104z"
						/>
					<path style="fill:#261F1B;" d="M675.641,528.035c-0.206,2.753-2.857,4.732-5.436,3.965c-0.448-0.133-0.965-0.703-1.079-1.163
						c-0.409-1.647,0.613-2.762,1.785-3.634c1.165-0.865,2.53-1.482,3.958-0.615C675.27,526.834,675.391,527.54,675.641,528.035z"/>
					<path style="fill:#261F1B;" d="M598.346,384.589c-0.777,2.67-4.638,3.747-6.464,1.942c-0.338-0.334-0.563-1.104-0.426-1.543
						c0.668-2.146,3.547-3.375,5.621-2.309C597.708,383.002,597.984,384.014,598.346,384.589z"/>
					<path style="fill:#261F1B;" d="M654.772,387.801c-0.589,1.302-1.19,2.594-2.935,2.571c-1.344-0.018-2.228-1.466-1.857-3.124
						c0.362-1.616,1.328-2.42,3.033-1.988C654.309,385.589,654.64,386.64,654.772,387.801z"/>
					<path style="fill:#261F1B;" d="M700.64,509.616c-1.002-0.019-2.005-0.038-3.007-0.056c-0.426-0.632-0.852-1.263-1.281-1.894
						c1.584,0.034,3.172,0.067,4.759,0.1C700.954,508.383,700.797,509,700.64,509.616z"/>
					<path style="fill:#261F1B;" d="M616.592,474.055c1.193-0.109,2.153,0.306,2.873,1.268
						C618.209,475.576,617.284,475.08,616.592,474.055z"/>
				</g>
			</g>
		</g>
	</g>
</g>
</svg>
